HIERARCHY
ROOT RootJoint
{
    OFFSET   0.000000   0.000000   0.000000
    CHANNELS 6 Xposition Yposition Zposition Xrotation Yrotation Zrotation
    JOINT pelvis_lowerback
    {
        OFFSET   0.000000   0.093605   0.000000
        CHANNELS 3 Xrotation Yrotation Zrotation
        JOINT lowerback_torso
        {
            OFFSET   0.000000   0.100000   0.000000
            CHANNELS 3 Xrotation Yrotation Zrotation
            JOINT torso_head
            {
                OFFSET   0.000000   0.282350   0.000000
                CHANNELS 3 Xrotation Yrotation Zrotation
                End Site
                {
                    OFFSET   0.000000   0.192650   0.000000
                }
            }
            JOINT rTorso_Clavicle
            {
                OFFSET  -0.001000   0.157500   0.000000
                CHANNELS 3 Xrotation Yrotation Zrotation
                JOINT rShoulder
                {
                    OFFSET  -0.117647   0.000000   0.000000
                    CHANNELS 3 Xrotation Yrotation Zrotation
                    JOINT rElbow
                    {
                        OFFSET  -0.245000   0.000000   0.000000
                        CHANNELS 3 Xrotation Yrotation Zrotation
                        JOINT rWrist
                        {
                            OFFSET  -0.240000   0.000000   0.000000
                            CHANNELS 3 Xrotation Yrotation Zrotation
                            End Site
                            {
                                OFFSET  -0.116353  -0.002500   0.000000
                            }
                        }
                    }
                }
            }
            JOINT lTorso_Clavicle
            {
                OFFSET   0.001000   0.157500   0.000000
                CHANNELS 3 Xrotation Yrotation Zrotation
                JOINT lShoulder
                {
                    OFFSET   0.117647   0.000000   0.000000
                    CHANNELS 3 Xrotation Yrotation Zrotation
                    JOINT lElbow
                    {
                        OFFSET   0.245000   0.000000   0.000000
                        CHANNELS 3 Xrotation Yrotation Zrotation
                        JOINT lWrist
                        {
                            OFFSET   0.240000   0.000000   0.000000
                            CHANNELS 3 Xrotation Yrotation Zrotation
                            End Site
                            {
                                OFFSET   0.116353  -0.002500   0.000000
                            }
                        }
                    }
                }
            }
        }
    }
    JOINT rHip
    {
        OFFSET  -0.100000  -0.051395   0.000000
        CHANNELS 3 Xrotation Yrotation Zrotation
        JOINT rKnee
        {
            OFFSET   0.000000  -0.410000   0.000000
            CHANNELS 3 Xrotation Yrotation Zrotation
            JOINT rAnkle
            {
                OFFSET   0.000000  -0.390000   0.000000
                CHANNELS 3 Xrotation Yrotation Zrotation
                JOINT rToeJoint
                {
                    OFFSET   0.000000  -0.050000   0.130000
                    CHANNELS 3 Xrotation Yrotation Zrotation
                    End Site
                    {
                        OFFSET  -0.010000   0.002000   0.060000
                    }
                }
            }
        }
    }
    JOINT lHip
    {
        OFFSET   0.100000  -0.051395   0.000000
        CHANNELS 3 Xrotation Yrotation Zrotation
        JOINT lKnee
        {
            OFFSET   0.000000  -0.410000   0.000000
            CHANNELS 3 Xrotation Yrotation Zrotation
            JOINT lAnkle
            {
                OFFSET   0.000000  -0.390000   0.000000
                CHANNELS 3 Xrotation Yrotation Zrotation
                JOINT lToeJoint
                {
                    OFFSET   0.000000  -0.050000   0.130000
                    CHANNELS 3 Xrotation Yrotation Zrotation
                    End Site
                    {
                        OFFSET   0.010000   0.002000   0.060000
                    }
                }
            }
        }
    }
}
MOTION
Frames: 15
Frame Time:   0.008333
 -2.266206   0.713199   3.988684  -1.469132  33.880354  -6.049572  11.805925   1.742227  -1.649984   1.691526  -6.663630   2.697541  -1.227384   5.737968  -1.138822   7.768002   1.649013  -3.920214  37.338803   3.062313  41.755096 -179.998111  78.522332 179.997319   0.547640   9.741530  -0.016043  -4.538996 -27.137497   2.800541 -14.860970 -20.643620  -6.890399   0.012707 -51.646540   0.014798   1.038653  -5.119000  16.623867  -9.293259  -9.195777 -30.035220  54.666183   0.001429   0.004757 -18.052257 -10.467357  -0.074253 -16.037908   0.000893  -0.007581 -59.706849   3.362401  34.575058  73.073176   0.003263   0.002979 -11.641182   5.961448  -7.384658  -0.781789  -0.000020  -0.000026
 -2.268597   0.714954   3.988584  -1.525297  34.009650  -5.924688  11.942301   1.648662  -1.654808   1.675609  -6.554081   2.709084  -1.307016   5.832579  -1.184083   7.742137   1.498990  -3.849740  37.175141   2.971128  41.594327 -179.997976  78.362420 179.997210   0.540853   9.782363  -0.000212  -4.456348 -27.007467   2.895959 -14.765402 -20.583773  -6.812995   0.012082 -52.439117   0.015252   1.022108  -5.114199  16.474981  -9.449284  -8.698225 -29.934189  55.363570   0.002465   0.006499 -17.706629 -10.287131   0.108599 -15.135581  -0.000964  -0.001053 -59.334411   3.232920  34.287015  72.436354   0.003943   0.003516 -11.067284   5.960220  -7.485645  -0.966926   0.000157   0.000354
 -2.271204   0.716568   3.988494  -1.606787  34.144602  -5.794062  12.089281   1.549784  -1.655145   1.678645  -6.448948   2.720858  -1.372488   5.921644  -1.233845   7.715347   1.356317  -3.768411  37.018715   2.890482  41.451524 -179.997992  78.211007 179.997289   0.534596   9.843927  -0.001402  -4.391257 -26.875339   2.995779 -14.681425 -20.527786  -6.725928   0.011263 -53.188620   0.015284   1.024739  -5.168368  16.364644  -9.612485  -8.202474 -29.822490  56.104541   0.003350   0.008018 -17.373977 -10.090574   0.284013 -14.262170  -0.002223   0.004117 -58.952894   3.072858  34.006362  71.804494   0.004517   0.003950 -10.490880   5.965828  -7.565576  -1.133350   0.000324   0.000615
 -2.273959   0.718026   3.988453  -1.703817  34.286558  -5.659948  12.229161   1.453088  -1.650787   1.689821  -6.353983   2.735334  -1.428701   6.004553  -1.281916   7.693319   1.218857  -3.686842  36.875351   2.816255  41.322235 -179.998074  78.070152 179.997446   0.528229   9.905378   0.005581  -4.334152 -26.749641   3.091537 -14.604594 -20.475395  -6.641027   0.010338 -53.889360   0.014954   1.031997  -5.235257  16.273033  -9.765870  -7.739921 -29.703119  56.834713   0.003954   0.009090 -17.066654  -9.896379   0.449079 -13.530539  -0.002871   0.007330 -58.580964   2.913688  33.748685  71.180943   0.004874   0.004146  -9.936254   5.976543  -7.632895  -1.256040   0.000407   0.000703
 -2.276823   0.719319   3.988455  -1.811001  34.432221  -5.521191  12.357410   1.359981  -1.641718   1.702302  -6.268515   2.751162  -1.479635   6.081906  -1.327138   7.675571   1.086810  -3.609365  36.744198   2.746369  41.203161 -179.998168  77.939498 179.997616   0.521918   9.961304   0.020135  -4.281785 -26.631562   3.181018 -14.533169 -20.426372  -6.561201   0.009359 -54.543661   0.014368   1.039793  -5.302099  16.189689  -9.906385  -7.311584 -29.581038  57.540343   0.004314   0.009754 -16.788533  -9.709311   0.603773 -12.978827  -0.003051   0.008785 -58.224394   2.762967  33.514093  70.570509   0.005043   0.004142  -9.407828   5.989288  -7.691496  -1.336222   0.000419   0.000680
 -2.279770   0.720441   3.988490  -1.926111  34.578556  -5.376745  12.473106   1.271114  -1.627653   1.713286  -6.191222   2.767886  -1.526948   6.154127  -1.369318   7.660939   0.960857  -3.537573  36.623629   2.680003  41.092258 -179.998258  77.818374 179.997780   0.515791  10.010949   0.037759  -4.233013 -26.521193   3.263865 -14.466420 -20.380619  -6.487013   0.008363 -55.154462   0.013620   1.047226  -5.366147  16.110906 -10.033846  -6.914643 -29.459845  58.218440   0.004484   0.010088 -16.540300  -9.530992   0.748674 -12.619765  -0.002903   0.008840 -57.884578   2.621964  33.300387  69.977181   0.005069   0.003995  -8.906190   6.002743  -7.743180  -1.378581   0.000383   0.000597
 -2.282779   0.721392   3.988545  -2.048172  34.723239  -5.226084  12.576501   1.186884  -1.608271   1.721687  -6.120864   2.785740  -1.571337   6.221568  -1.408463   7.648308   0.841611  -3.471671  36.512043   2.617160  40.988364 -179.998340  77.705445 179.997931   0.509973  10.009069   0.055938  -4.187334 -26.418379   3.340283 -14.403940 -20.338092  -6.418361   0.007383 -55.724673   0.012783   1.054195  -5.427137  16.035464 -10.148841  -6.546192 -29.341938  58.869191   0.004508   0.010165 -16.321334  -9.362022   0.884504 -12.454155  -0.002530   0.007865 -57.561480   2.490371  33.105393  69.403720   0.004994   0.003755  -8.430958   6.016347  -7.789007  -1.387661   0.000317   0.000487
 -2.286337   0.722276   3.988232  -2.227705  34.754826  -4.982841  12.870999   1.043920  -1.628157   1.680834  -5.993547   2.737228  -1.678562   6.321821  -1.482800   7.633224   0.723752  -3.367734  36.247769   2.582234  40.852766 -179.998124  77.594822 179.997808   0.525950  10.007893   0.097548  -4.094675 -26.221254   3.519377 -14.410856 -20.197013  -6.253429   0.006640 -56.378960   0.012847   1.070101  -5.464463  15.914136 -10.439212  -5.948674 -29.146210  59.922016   0.004430   0.012539 -16.933731  -8.949066   1.077560 -11.283760  -0.006787   0.014735 -57.178616   2.310203  32.900052  68.825106   0.005505   0.004202  -7.678131   6.052204  -7.950600  -1.725080   0.000617   0.001008
 -2.290117   0.723040   3.987851  -2.450660  34.776193  -4.684090  13.188414   0.897723  -1.648074   1.676883  -5.867971   2.676097  -1.765502   6.413250  -1.562384   7.614186   0.610900  -3.269419  35.995574   2.547553  40.725351 -179.998099  77.492349 179.997879   0.542253  10.006656   0.097797  -4.022003 -26.012985   3.696310 -14.422418 -20.050088  -6.082325   0.006092 -56.988744   0.012893   1.090112  -5.508947  15.825776 -10.774306  -5.374353 -28.899368  60.972758   0.003544   0.014749 -17.512736  -8.560934   1.262121 -10.261944  -0.010142   0.018970 -56.762752   2.142892  32.682956  68.237656   0.005982   0.004653  -6.907591   6.089873  -8.083064  -2.064338   0.000972   0.001462
 -2.293979   0.723623   3.987457  -2.686180  34.811318  -4.369411  13.487518   0.753390  -1.641706   1.691477  -5.755797   2.621177  -1.838905   6.497872  -1.638417   7.602506   0.494412  -3.187292  35.766714   2.506740  40.603588 -179.998185  77.399592 179.998056   0.557794  10.005596   0.090237  -3.955201 -25.811078   3.858372 -14.433266 -19.907951  -5.922896   0.005718 -57.556967   0.012936   1.107902  -5.545690  15.749451 -11.079393  -4.822362 -28.706265  62.022594   0.003188   0.016140 -18.056432  -8.316715   1.401343  -9.428881  -0.010902   0.020002 -56.357432   1.986727  32.465780  67.661556   0.006242   0.004893  -6.166858   6.127570  -8.200174  -2.356353   0.001188   0.001684
 -2.297947   0.724026   3.987073  -2.924364  34.849960  -4.056390  13.765976   0.617537  -1.614290   1.711493  -5.653376   2.580894  -1.905479   6.576922  -1.707102   7.595981   0.378883  -3.114864  35.557694   2.463888  40.488916 -179.998321  77.315480 179.998277   0.572644  10.004748   0.083647  -3.892337 -25.619046   4.007105 -14.442654 -19.772790  -5.775349   0.005417 -58.086667   0.012901   1.123690  -5.575832  15.674072 -11.359882  -4.302830 -28.533082  63.019030   0.002996   0.016761 -18.563201  -8.077932   1.537700  -8.654798  -0.011059   0.020335 -55.973716   1.840445  32.269608  67.096140   0.006335   0.004928  -5.461392   6.162792  -8.306203  -2.590701   0.001271   0.001709
 -2.302021   0.724239   3.986700  -3.161135  34.888820  -3.746566  14.022727   0.489939  -1.571231   1.731807  -5.559554   2.553867  -1.967128   6.650825  -1.768996   7.592628   0.267125  -3.049157  35.365399   2.421599  40.381590 -179.998471  77.238401 179.998503   0.586781  10.004088   0.079928  -3.833455 -25.438288   4.144765 -14.450927 -19.645654  -5.638372   0.005121 -58.580734   0.012754   1.137985  -5.601423  15.597981 -11.615960  -3.814045 -28.381614  63.960439   0.002905   0.016778 -19.036202  -7.859044   1.666376  -7.946575  -0.010728   0.019990 -55.613520   1.702056  32.094098  66.543632   0.006311   0.004817  -4.792875   6.195890  -8.402806  -2.766805   0.001253   0.001608
 -2.306200   0.724254   3.986344  -3.396380  34.926486  -3.440721  14.258770   0.370140  -1.515046   1.750463  -5.473569   2.538887  -2.024627   6.719905  -1.824933   7.591119   0.160713  -2.988458  35.187517   2.381152  40.281333 -179.998616  77.167369 179.998716   0.600238  10.003585   0.078852  -3.778785 -25.269402   4.272963 -14.458540 -19.527062  -5.510714   0.004799 -59.041844   0.012488   1.151319  -5.624357  15.522290 -11.845521  -3.354163 -28.253831  64.848304   0.002881   0.016333 -19.478231  -7.661151   1.786806  -7.304635  -0.010055   0.019122 -55.280504   1.571310  31.941201  66.008856   0.006188   0.004582  -4.154070   6.232368  -8.492509  -2.895662   0.001170   0.001431
 -2.311255   0.724473   3.985618  -3.660081  34.827124  -3.138993  14.620877   0.210757  -1.442962   1.796806  -5.332198   2.459116  -2.073424   6.866422  -1.922835   7.547286   0.090821  -2.885993  34.814944   2.444759  40.137516 -179.998719  77.125467 179.998846   0.617645  10.002989   0.056023  -3.743445 -25.033577   4.417799 -14.543483 -19.301737  -5.318407   0.004492 -59.525011   0.012163   1.191203  -5.664082  15.461298 -12.344578  -2.746505 -27.930619  66.144021   0.001224   0.018374 -20.780098  -7.163224   1.940632  -6.479163  -0.012463   0.021575 -54.867510   1.318928  31.841924  65.378781   0.007089   0.005311  -3.181119   6.239031  -8.686025  -3.358905   0.001729   0.002276
 -2.316707   0.724746   3.984805  -3.966347  34.708810  -2.796573  15.011573   0.054285  -1.371014   1.892323  -5.187634   2.367292  -2.098155   7.001607  -2.025739   7.489629   0.040091  -2.785138  34.449482   2.513823  39.999720 -179.998861  77.083542 179.999014   0.635183  10.001919  -0.019419  -3.718521 -24.796792   4.548562 -14.627356 -19.077623  -5.134091   0.004556 -59.972679   0.011966   1.227313  -5.692235  15.441600 -12.913935  -2.182594 -27.532564  67.434181  -0.001374   0.020448 -22.004392  -6.694780   2.096600  -5.798323  -0.014226   0.022186 -54.387663   1.081692  31.740195  64.669346   0.008174   0.006249  -2.173624   6.258006  -8.835579  -3.792894   0.002346   0.002930
